<svg width="1540" height="270" viewBox="39 38 308 54" xmlns="http://www.w3.org/2000/svg" preserveAspectRatio="xMinYMin meet" fill="none">
  <g fill="#C10076">
    <path d="M40 85V45h12v6c3-4 8-7 15-7 10 0 16 6 16 16v25h-12V62c0-6-3-9-8-9s-11 3-11 11v21H40z"/>
    
    <path d="M125 65h-28c0-8 6-13 13-13 5 0 10 2 12 6l10-4c-4-8-12-13-22-13-16 0-26 11-26 24s10 24 26 24c11 0 19-5 23-14l-8-3c-3 5-8 7-13 7-7 0-12-4-13-10h40v-8l-14 14z"/>
    
    <path d="M140 45h13l10 15 10-15h13l-17 22 18 23h-13l-11-16-11 16h-13l18-23-17-22z"/>
    
    <path d="M225 65c0 14-10 25-24 25s-24-11-24-25 10-25 24-25 24 11 24 25zm-35 0c0 8 5 13 11 13s11-5 11-13-5-13-11-13-11 5-11 13z"/>
    
    <rect x="235" y="60" width="18" height="10"/>
    
    <path d="M265 85V45h12v8c3-6 8-9 14-9v13c-1 0-2 0-3 0-8 0-11 5-11 13v15h-12z"/>
    
    <path d="M335 85v-7c-4 5-10 8-17 8-13 0-21-9-21-20s8-20 21-20c7 0 13 3 17 8v-9h11v28c0 5 0 10 5 15l-10 10c-3-3-6-8-6-15zm-11-13c7 0 11-5 11-12s-4-12-11-12-11 5-11 12 4 12 11 12z"/>
  </g>
</svg>
